<svg xmlns="http://www.w3.org/2000/svg" viewBox="0 0 64 64" fill="none">
  <defs>
    <linearGradient id="g" x1="8" y1="10" x2="56" y2="54" gradientUnits="userSpaceOnUse">
      <stop stop-color="#5B7CFF"/>
      <stop offset="1" stop-color="#A66BFF"/>
    </linearGradient>
  </defs>
  <rect width="64" height="64" rx="16" fill="url(#g)"/>
  <path d="M32 12L35.5 24.5L48 28L35.5 31.5L32 44L28.5 31.5L16 28L28.5 24.5L32 12Z" fill="white"/>
  <path d="M46 38L48 44L54 46L48 48L46 54L44 48L38 46L44 44L46 38Z" fill="white" opacity="0.8"/>
  <path d="M20 36L21.5 40.5L26 42L21.5 43.5L20 48L18.5 43.5L14 42L18.5 40.5L20 36Z" fill="white" opacity="0.6"/>
</svg>
