<svg xmlns="http://www.w3.org/2000/svg" viewBox="0 0 64 64" fill="none">
  <defs>
    <linearGradient id="g" x1="8" y1="10" x2="56" y2="54" gradientUnits="userSpaceOnUse">
      <stop stop-color="#5B7CFF"/>
      <stop offset="1" stop-color="#A66BFF"/>
    </linearGradient>
  </defs>
  <rect width="64" height="64" rx="16" fill="url(#g)" opacity="0.16"/>
  <path d="M31 10c.5-1 1.5-1 2 0l3 7.5 8 1.2c1.1.2 1.5 1.4.7 2.2l-6 5.8 1.4 8.3c.2 1.1-1 .9-1.8.5L32 31l-6.3 4.2c-.9.4-2 .6-1.8-.5l1.4-8.3-6-5.8c-.8-.8-.4-2 .7-2.2l8-1.2 3-7.5Z" fill="url(#g)"/>
  <path d="M16.5 36c.3-.7 1.2-.7 1.6 0l1.6 3.9 4.1.6c.6.1.8.7.4 1.1l-3.1 3 0 .1.7 4.3c.1.6-.6.9-1.1.6l-3.6-2.2-3.6 2.2c-.5.3-1.2 0-1.1-.6l.7-4.3-3.1-3c-.4-.4-.2-1 .4-1.1l4.1-.6 1.6-3.9Z" fill="url(#g)" opacity=".85"/>
  <path d="M45.5 36c.3-.7 1.2-.7 1.6 0l1.6 3.9 4.1.6c.6.1.8.7.4 1.1l-3.1 3 0 .1.7 4.3c.1.6-.6.9-1.1.6l-3.6-2.2-3.6 2.2c-.5.3-1.2 0-1.1-.6l.7-4.3-3.1-3c-.4-.4-.2-1 .4-1.1l4.1-.6 1.6-3.9Z" fill="url(#g)" opacity=".72"/>
</svg>
